<mxfile host="app.diagrams.net" agent="Mozilla/5.0 (Windows NT 10.0; Win64; x64) AppleWebKit/537.36 (KHTML, like Gecko) Chrome/126.0.0.0 Safari/537.36" version="24.7.5">
  <diagram name="Page-1" id="Sa2jNOpjpUF1fvdBK9Ho">
    <mxGraphModel dx="2031" dy="620" grid="0" gridSize="10" guides="1" tooltips="1" connect="1" arrows="1" fold="1" page="0" pageScale="1" pageWidth="850" pageHeight="1100" background="none" math="0" shadow="0">
      <root>
        <mxCell id="0" />
        <mxCell id="1" parent="0" />
        <mxCell id="0f7jAilSPW5a9-ydPJ3p-114" value="ebook" style="swimlane;fontStyle=0;childLayout=stackLayout;horizontal=1;startSize=26;fillColor=none;horizontalStack=0;resizeParent=1;resizeParentMax=0;resizeLast=0;collapsible=1;marginBottom=0;whiteSpace=wrap;html=1;" parent="1" vertex="1">
          <mxGeometry x="-501" y="136" width="140" height="234" as="geometry" />
        </mxCell>
        <mxCell id="0f7jAilSPW5a9-ydPJ3p-115" value="id:integer PK" style="text;strokeColor=default;fillColor=none;align=left;verticalAlign=top;spacingLeft=4;spacingRight=4;overflow=hidden;rotatable=0;points=[[0,0.5],[1,0.5]];portConstraint=eastwest;whiteSpace=wrap;html=1;" parent="0f7jAilSPW5a9-ydPJ3p-114" vertex="1">
          <mxGeometry y="26" width="140" height="26" as="geometry" />
        </mxCell>
        <mxCell id="MqzmuiDmmc-yn_9UZ0-z-31" value="isbn:string" style="text;strokeColor=none;fillColor=none;align=left;verticalAlign=top;spacingLeft=4;spacingRight=4;overflow=hidden;rotatable=0;points=[[0,0.5],[1,0.5]];portConstraint=eastwest;whiteSpace=wrap;html=1;" vertex="1" parent="0f7jAilSPW5a9-ydPJ3p-114">
          <mxGeometry y="52" width="140" height="26" as="geometry" />
        </mxCell>
        <mxCell id="0f7jAilSPW5a9-ydPJ3p-116" value="name: string" style="text;strokeColor=none;fillColor=none;align=left;verticalAlign=top;spacingLeft=4;spacingRight=4;overflow=hidden;rotatable=0;points=[[0,0.5],[1,0.5]];portConstraint=eastwest;whiteSpace=wrap;html=1;" parent="0f7jAilSPW5a9-ydPJ3p-114" vertex="1">
          <mxGeometry y="78" width="140" height="26" as="geometry" />
        </mxCell>
        <mxCell id="MqzmuiDmmc-yn_9UZ0-z-8" value="" style="endArrow=none;html=1;rounded=0;" edge="1" parent="0f7jAilSPW5a9-ydPJ3p-114">
          <mxGeometry width="50" height="50" relative="1" as="geometry">
            <mxPoint y="140" as="sourcePoint" />
            <mxPoint x="2.2737367544323206e-13" y="140" as="targetPoint" />
          </mxGeometry>
        </mxCell>
        <mxCell id="MqzmuiDmmc-yn_9UZ0-z-5" value="author:string" style="text;strokeColor=none;fillColor=none;align=left;verticalAlign=top;spacingLeft=4;spacingRight=4;overflow=hidden;rotatable=0;points=[[0,0.5],[1,0.5]];portConstraint=eastwest;whiteSpace=wrap;html=1;" vertex="1" parent="0f7jAilSPW5a9-ydPJ3p-114">
          <mxGeometry y="104" width="140" height="26" as="geometry" />
        </mxCell>
        <mxCell id="MqzmuiDmmc-yn_9UZ0-z-30" value="ebook_price:float" style="text;strokeColor=none;fillColor=none;align=left;verticalAlign=top;spacingLeft=4;spacingRight=4;overflow=hidden;rotatable=0;points=[[0,0.5],[1,0.5]];portConstraint=eastwest;whiteSpace=wrap;html=1;" vertex="1" parent="0f7jAilSPW5a9-ydPJ3p-114">
          <mxGeometry y="130" width="140" height="26" as="geometry" />
        </mxCell>
        <mxCell id="MqzmuiDmmc-yn_9UZ0-z-4" value="ebook_rent_price:float" style="text;strokeColor=none;fillColor=none;align=left;verticalAlign=top;spacingLeft=4;spacingRight=4;overflow=hidden;rotatable=0;points=[[0,0.5],[1,0.5]];portConstraint=eastwest;whiteSpace=wrap;html=1;" vertex="1" parent="0f7jAilSPW5a9-ydPJ3p-114">
          <mxGeometry y="156" width="140" height="26" as="geometry" />
        </mxCell>
        <mxCell id="0f7jAilSPW5a9-ydPJ3p-121" value="&lt;font style=&quot;font-size: 10px;&quot;&gt;latestprocess_id:integer FK&lt;/font&gt;" style="text;strokeColor=none;fillColor=none;align=left;verticalAlign=top;spacingLeft=4;spacingRight=4;overflow=hidden;rotatable=0;points=[[0,0.5],[1,0.5]];portConstraint=eastwest;whiteSpace=wrap;html=1;" parent="0f7jAilSPW5a9-ydPJ3p-114" vertex="1">
          <mxGeometry y="182" width="140" height="26" as="geometry" />
        </mxCell>
        <mxCell id="MqzmuiDmmc-yn_9UZ0-z-1" value="active:boolean" style="text;strokeColor=none;fillColor=none;align=left;verticalAlign=top;spacingLeft=4;spacingRight=4;overflow=hidden;rotatable=0;points=[[0,0.5],[1,0.5]];portConstraint=eastwest;whiteSpace=wrap;html=1;" vertex="1" parent="0f7jAilSPW5a9-ydPJ3p-114">
          <mxGeometry y="208" width="140" height="26" as="geometry" />
        </mxCell>
        <mxCell id="0f7jAilSPW5a9-ydPJ3p-118" value="package" style="swimlane;fontStyle=0;childLayout=stackLayout;horizontal=1;startSize=26;fillColor=none;horizontalStack=0;resizeParent=1;resizeParentMax=0;resizeLast=0;collapsible=1;marginBottom=0;whiteSpace=wrap;html=1;" parent="1" vertex="1">
          <mxGeometry x="86" y="128" width="140" height="156" as="geometry" />
        </mxCell>
        <mxCell id="0f7jAilSPW5a9-ydPJ3p-119" value="id:integer PK" style="text;strokeColor=default;fillColor=none;align=left;verticalAlign=top;spacingLeft=4;spacingRight=4;overflow=hidden;rotatable=0;points=[[0,0.5],[1,0.5]];portConstraint=eastwest;whiteSpace=wrap;html=1;" parent="0f7jAilSPW5a9-ydPJ3p-118" vertex="1">
          <mxGeometry y="26" width="140" height="26" as="geometry" />
        </mxCell>
        <mxCell id="0f7jAilSPW5a9-ydPJ3p-120" value="name: string" style="text;strokeColor=none;fillColor=none;align=left;verticalAlign=top;spacingLeft=4;spacingRight=4;overflow=hidden;rotatable=0;points=[[0,0.5],[1,0.5]];portConstraint=eastwest;whiteSpace=wrap;html=1;" parent="0f7jAilSPW5a9-ydPJ3p-118" vertex="1">
          <mxGeometry y="52" width="140" height="26" as="geometry" />
        </mxCell>
        <mxCell id="MqzmuiDmmc-yn_9UZ0-z-26" value="subscription_price:float" style="text;strokeColor=none;fillColor=none;align=left;verticalAlign=top;spacingLeft=4;spacingRight=4;overflow=hidden;rotatable=0;points=[[0,0.5],[1,0.5]];portConstraint=eastwest;whiteSpace=wrap;html=1;" vertex="1" parent="0f7jAilSPW5a9-ydPJ3p-118">
          <mxGeometry y="78" width="140" height="26" as="geometry" />
        </mxCell>
        <mxCell id="JuW6R3AkMgyiEgDl9GDe-1" value="&lt;span style=&quot;font-size: 10px;&quot;&gt;latestprocess_id:integer FK&lt;/span&gt;" style="text;strokeColor=none;fillColor=none;align=left;verticalAlign=top;spacingLeft=4;spacingRight=4;overflow=hidden;rotatable=0;points=[[0,0.5],[1,0.5]];portConstraint=eastwest;whiteSpace=wrap;html=1;" parent="0f7jAilSPW5a9-ydPJ3p-118" vertex="1">
          <mxGeometry y="104" width="140" height="26" as="geometry" />
        </mxCell>
        <mxCell id="JuW6R3AkMgyiEgDl9GDe-3" value="active: boolean" style="text;strokeColor=none;fillColor=none;align=left;verticalAlign=top;spacingLeft=4;spacingRight=4;overflow=hidden;rotatable=0;points=[[0,0.5],[1,0.5]];portConstraint=eastwest;whiteSpace=wrap;html=1;" parent="0f7jAilSPW5a9-ydPJ3p-118" vertex="1">
          <mxGeometry y="130" width="140" height="26" as="geometry" />
        </mxCell>
        <mxCell id="0f7jAilSPW5a9-ydPJ3p-122" value="package_diff" style="swimlane;fontStyle=0;childLayout=stackLayout;horizontal=1;startSize=26;fillColor=none;horizontalStack=0;resizeParent=1;resizeParentMax=0;resizeLast=0;collapsible=1;marginBottom=0;whiteSpace=wrap;html=1;" parent="1" vertex="1">
          <mxGeometry x="146" y="469" width="140" height="182" as="geometry" />
        </mxCell>
        <mxCell id="0f7jAilSPW5a9-ydPJ3p-123" value="id:integer PK" style="text;strokeColor=default;fillColor=none;align=left;verticalAlign=top;spacingLeft=4;spacingRight=4;overflow=hidden;rotatable=0;points=[[0,0.5],[1,0.5]];portConstraint=eastwest;whiteSpace=wrap;html=1;" parent="0f7jAilSPW5a9-ydPJ3p-122" vertex="1">
          <mxGeometry y="26" width="140" height="26" as="geometry" />
        </mxCell>
        <mxCell id="0f7jAilSPW5a9-ydPJ3p-133" value="package_id:integer FK" style="text;strokeColor=none;fillColor=none;align=left;verticalAlign=top;spacingLeft=4;spacingRight=4;overflow=hidden;rotatable=0;points=[[0,0.5],[1,0.5]];portConstraint=eastwest;whiteSpace=wrap;html=1;" parent="0f7jAilSPW5a9-ydPJ3p-122" vertex="1">
          <mxGeometry y="52" width="140" height="26" as="geometry" />
        </mxCell>
        <mxCell id="0f7jAilSPW5a9-ydPJ3p-161" value="process_id:string FK" style="text;strokeColor=none;fillColor=none;align=left;verticalAlign=top;spacingLeft=4;spacingRight=4;overflow=hidden;rotatable=0;points=[[0,0.5],[1,0.5]];portConstraint=eastwest;whiteSpace=wrap;html=1;" parent="0f7jAilSPW5a9-ydPJ3p-122" vertex="1">
          <mxGeometry y="78" width="140" height="26" as="geometry" />
        </mxCell>
        <mxCell id="MqzmuiDmmc-yn_9UZ0-z-27" value="name: string" style="text;strokeColor=none;fillColor=none;align=left;verticalAlign=top;spacingLeft=4;spacingRight=4;overflow=hidden;rotatable=0;points=[[0,0.5],[1,0.5]];portConstraint=eastwest;whiteSpace=wrap;html=1;" vertex="1" parent="0f7jAilSPW5a9-ydPJ3p-122">
          <mxGeometry y="104" width="140" height="26" as="geometry" />
        </mxCell>
        <mxCell id="MqzmuiDmmc-yn_9UZ0-z-28" value="subscription_price:float" style="text;strokeColor=none;fillColor=none;align=left;verticalAlign=top;spacingLeft=4;spacingRight=4;overflow=hidden;rotatable=0;points=[[0,0.5],[1,0.5]];portConstraint=eastwest;whiteSpace=wrap;html=1;" vertex="1" parent="0f7jAilSPW5a9-ydPJ3p-122">
          <mxGeometry y="130" width="140" height="26" as="geometry" />
        </mxCell>
        <mxCell id="0f7jAilSPW5a9-ydPJ3p-125" value="active: boolean" style="text;strokeColor=none;fillColor=none;align=left;verticalAlign=top;spacingLeft=4;spacingRight=4;overflow=hidden;rotatable=0;points=[[0,0.5],[1,0.5]];portConstraint=eastwest;whiteSpace=wrap;html=1;" parent="0f7jAilSPW5a9-ydPJ3p-122" vertex="1">
          <mxGeometry y="156" width="140" height="26" as="geometry" />
        </mxCell>
        <mxCell id="0f7jAilSPW5a9-ydPJ3p-126" value="ebook_diff" style="swimlane;fontStyle=0;childLayout=stackLayout;horizontal=1;startSize=26;fillColor=none;horizontalStack=0;resizeParent=1;resizeParentMax=0;resizeLast=0;collapsible=1;marginBottom=0;whiteSpace=wrap;html=1;" parent="1" vertex="1">
          <mxGeometry x="-498" y="551" width="140" height="260" as="geometry" />
        </mxCell>
        <mxCell id="0f7jAilSPW5a9-ydPJ3p-127" value="id:integer PK" style="text;strokeColor=default;fillColor=none;align=left;verticalAlign=top;spacingLeft=4;spacingRight=4;overflow=hidden;rotatable=0;points=[[0,0.5],[1,0.5]];portConstraint=eastwest;whiteSpace=wrap;html=1;" parent="0f7jAilSPW5a9-ydPJ3p-126" vertex="1">
          <mxGeometry y="26" width="140" height="26" as="geometry" />
        </mxCell>
        <mxCell id="0f7jAilSPW5a9-ydPJ3p-131" value="ebook_id:integer FK" style="text;strokeColor=none;fillColor=none;align=left;verticalAlign=top;spacingLeft=4;spacingRight=4;overflow=hidden;rotatable=0;points=[[0,0.5],[1,0.5]];portConstraint=eastwest;whiteSpace=wrap;html=1;" parent="0f7jAilSPW5a9-ydPJ3p-126" vertex="1">
          <mxGeometry y="52" width="140" height="26" as="geometry" />
        </mxCell>
        <mxCell id="0f7jAilSPW5a9-ydPJ3p-160" value="process_id:string FK" style="text;strokeColor=none;fillColor=none;align=left;verticalAlign=top;spacingLeft=4;spacingRight=4;overflow=hidden;rotatable=0;points=[[0,0.5],[1,0.5]];portConstraint=eastwest;whiteSpace=wrap;html=1;" parent="0f7jAilSPW5a9-ydPJ3p-126" vertex="1">
          <mxGeometry y="78" width="140" height="26" as="geometry" />
        </mxCell>
        <mxCell id="MqzmuiDmmc-yn_9UZ0-z-21" value="isbn:string" style="text;strokeColor=none;fillColor=none;align=left;verticalAlign=top;spacingLeft=4;spacingRight=4;overflow=hidden;rotatable=0;points=[[0,0.5],[1,0.5]];portConstraint=eastwest;whiteSpace=wrap;html=1;" vertex="1" parent="0f7jAilSPW5a9-ydPJ3p-126">
          <mxGeometry y="104" width="140" height="26" as="geometry" />
        </mxCell>
        <mxCell id="0f7jAilSPW5a9-ydPJ3p-128" value="name: string" style="text;strokeColor=none;fillColor=none;align=left;verticalAlign=top;spacingLeft=4;spacingRight=4;overflow=hidden;rotatable=0;points=[[0,0.5],[1,0.5]];portConstraint=eastwest;whiteSpace=wrap;html=1;" parent="0f7jAilSPW5a9-ydPJ3p-126" vertex="1">
          <mxGeometry y="130" width="140" height="26" as="geometry" />
        </mxCell>
        <mxCell id="MqzmuiDmmc-yn_9UZ0-z-24" value="author:string" style="text;strokeColor=none;fillColor=none;align=left;verticalAlign=top;spacingLeft=4;spacingRight=4;overflow=hidden;rotatable=0;points=[[0,0.5],[1,0.5]];portConstraint=eastwest;whiteSpace=wrap;html=1;" vertex="1" parent="0f7jAilSPW5a9-ydPJ3p-126">
          <mxGeometry y="156" width="140" height="26" as="geometry" />
        </mxCell>
        <mxCell id="MqzmuiDmmc-yn_9UZ0-z-23" value="ebook_price:float" style="text;strokeColor=none;fillColor=none;align=left;verticalAlign=top;spacingLeft=4;spacingRight=4;overflow=hidden;rotatable=0;points=[[0,0.5],[1,0.5]];portConstraint=eastwest;whiteSpace=wrap;html=1;" vertex="1" parent="0f7jAilSPW5a9-ydPJ3p-126">
          <mxGeometry y="182" width="140" height="26" as="geometry" />
        </mxCell>
        <mxCell id="0f7jAilSPW5a9-ydPJ3p-129" value="ebook_rent_price:float" style="text;strokeColor=none;fillColor=none;align=left;verticalAlign=top;spacingLeft=4;spacingRight=4;overflow=hidden;rotatable=0;points=[[0,0.5],[1,0.5]];portConstraint=eastwest;whiteSpace=wrap;html=1;" parent="0f7jAilSPW5a9-ydPJ3p-126" vertex="1">
          <mxGeometry y="208" width="140" height="26" as="geometry" />
        </mxCell>
        <mxCell id="MqzmuiDmmc-yn_9UZ0-z-25" value="active: boolean" style="text;strokeColor=none;fillColor=none;align=left;verticalAlign=top;spacingLeft=4;spacingRight=4;overflow=hidden;rotatable=0;points=[[0,0.5],[1,0.5]];portConstraint=eastwest;whiteSpace=wrap;html=1;" vertex="1" parent="0f7jAilSPW5a9-ydPJ3p-126">
          <mxGeometry y="234" width="140" height="26" as="geometry" />
        </mxCell>
        <mxCell id="0f7jAilSPW5a9-ydPJ3p-132" style="edgeStyle=orthogonalEdgeStyle;rounded=0;orthogonalLoop=1;jettySize=auto;html=1;exitX=0;exitY=0.5;exitDx=0;exitDy=0;entryX=0;entryY=0.5;entryDx=0;entryDy=0;" parent="1" source="0f7jAilSPW5a9-ydPJ3p-131" target="0f7jAilSPW5a9-ydPJ3p-115" edge="1">
          <mxGeometry relative="1" as="geometry" />
        </mxCell>
        <mxCell id="0f7jAilSPW5a9-ydPJ3p-134" style="edgeStyle=orthogonalEdgeStyle;rounded=0;orthogonalLoop=1;jettySize=auto;html=1;exitX=1;exitY=0.5;exitDx=0;exitDy=0;entryX=1;entryY=0.5;entryDx=0;entryDy=0;" parent="1" source="0f7jAilSPW5a9-ydPJ3p-133" target="0f7jAilSPW5a9-ydPJ3p-119" edge="1">
          <mxGeometry relative="1" as="geometry" />
        </mxCell>
        <mxCell id="0f7jAilSPW5a9-ydPJ3p-135" value="ebooks_packages" style="swimlane;fontStyle=0;childLayout=stackLayout;horizontal=1;startSize=26;fillColor=none;horizontalStack=0;resizeParent=1;resizeParentMax=0;resizeLast=0;collapsible=1;marginBottom=0;whiteSpace=wrap;html=1;" parent="1" vertex="1">
          <mxGeometry x="-191" y="110" width="155" height="182" as="geometry" />
        </mxCell>
        <mxCell id="0f7jAilSPW5a9-ydPJ3p-136" value="id:integer PK" style="text;strokeColor=default;fillColor=none;align=left;verticalAlign=top;spacingLeft=4;spacingRight=4;overflow=hidden;rotatable=0;points=[[0,0.5],[1,0.5]];portConstraint=eastwest;whiteSpace=wrap;html=1;" parent="0f7jAilSPW5a9-ydPJ3p-135" vertex="1">
          <mxGeometry y="26" width="155" height="26" as="geometry" />
        </mxCell>
        <mxCell id="0f7jAilSPW5a9-ydPJ3p-139" value="ebook_id:integer FK" style="text;strokeColor=none;fillColor=none;align=left;verticalAlign=top;spacingLeft=4;spacingRight=4;overflow=hidden;rotatable=0;points=[[0,0.5],[1,0.5]];portConstraint=eastwest;whiteSpace=wrap;html=1;" parent="0f7jAilSPW5a9-ydPJ3p-135" vertex="1">
          <mxGeometry y="52" width="155" height="26" as="geometry" />
        </mxCell>
        <mxCell id="0f7jAilSPW5a9-ydPJ3p-140" value="package_id:integer FK" style="text;strokeColor=none;fillColor=none;align=left;verticalAlign=top;spacingLeft=4;spacingRight=4;overflow=hidden;rotatable=0;points=[[0,0.5],[1,0.5]];portConstraint=eastwest;whiteSpace=wrap;html=1;" parent="0f7jAilSPW5a9-ydPJ3p-135" vertex="1">
          <mxGeometry y="78" width="155" height="26" as="geometry" />
        </mxCell>
        <mxCell id="0f7jAilSPW5a9-ydPJ3p-137" value="name: string" style="text;strokeColor=none;fillColor=none;align=left;verticalAlign=top;spacingLeft=4;spacingRight=4;overflow=hidden;rotatable=0;points=[[0,0.5],[1,0.5]];portConstraint=eastwest;whiteSpace=wrap;html=1;" parent="0f7jAilSPW5a9-ydPJ3p-135" vertex="1">
          <mxGeometry y="104" width="155" height="26" as="geometry" />
        </mxCell>
        <mxCell id="JuW6R3AkMgyiEgDl9GDe-2" value="&lt;span style=&quot;font-size: 10px;&quot;&gt;latestprocess_id:integer FK&lt;/span&gt;" style="text;strokeColor=none;fillColor=none;align=left;verticalAlign=top;spacingLeft=4;spacingRight=4;overflow=hidden;rotatable=0;points=[[0,0.5],[1,0.5]];portConstraint=eastwest;whiteSpace=wrap;html=1;" parent="0f7jAilSPW5a9-ydPJ3p-135" vertex="1">
          <mxGeometry y="130" width="155" height="26" as="geometry" />
        </mxCell>
        <mxCell id="0f7jAilSPW5a9-ydPJ3p-138" value="active:boolean" style="text;strokeColor=none;fillColor=none;align=left;verticalAlign=top;spacingLeft=4;spacingRight=4;overflow=hidden;rotatable=0;points=[[0,0.5],[1,0.5]];portConstraint=eastwest;whiteSpace=wrap;html=1;" parent="0f7jAilSPW5a9-ydPJ3p-135" vertex="1">
          <mxGeometry y="156" width="155" height="26" as="geometry" />
        </mxCell>
        <mxCell id="0f7jAilSPW5a9-ydPJ3p-142" style="edgeStyle=orthogonalEdgeStyle;rounded=0;orthogonalLoop=1;jettySize=auto;html=1;exitX=1;exitY=0.5;exitDx=0;exitDy=0;entryX=0;entryY=0.5;entryDx=0;entryDy=0;" parent="1" source="0f7jAilSPW5a9-ydPJ3p-140" target="0f7jAilSPW5a9-ydPJ3p-119" edge="1">
          <mxGeometry relative="1" as="geometry" />
        </mxCell>
        <mxCell id="0f7jAilSPW5a9-ydPJ3p-143" style="edgeStyle=orthogonalEdgeStyle;rounded=0;orthogonalLoop=1;jettySize=auto;html=1;exitX=0;exitY=0.5;exitDx=0;exitDy=0;entryX=1;entryY=0.5;entryDx=0;entryDy=0;" parent="1" source="0f7jAilSPW5a9-ydPJ3p-139" target="0f7jAilSPW5a9-ydPJ3p-115" edge="1">
          <mxGeometry relative="1" as="geometry" />
        </mxCell>
        <mxCell id="0f7jAilSPW5a9-ydPJ3p-163" style="edgeStyle=orthogonalEdgeStyle;rounded=0;orthogonalLoop=1;jettySize=auto;html=1;entryX=1;entryY=0.5;entryDx=0;entryDy=0;" parent="1" source="0f7jAilSPW5a9-ydPJ3p-147" target="0f7jAilSPW5a9-ydPJ3p-151" edge="1">
          <mxGeometry relative="1" as="geometry" />
        </mxCell>
        <mxCell id="0f7jAilSPW5a9-ydPJ3p-144" value="ebooks_packages_diff" style="swimlane;fontStyle=0;childLayout=stackLayout;horizontal=1;startSize=26;fillColor=none;horizontalStack=0;resizeParent=1;resizeParentMax=0;resizeLast=0;collapsible=1;marginBottom=0;whiteSpace=wrap;html=1;" parent="1" vertex="1">
          <mxGeometry x="-254" y="327" width="185" height="156" as="geometry" />
        </mxCell>
        <mxCell id="0f7jAilSPW5a9-ydPJ3p-145" value="id:integer PK" style="text;strokeColor=default;fillColor=none;align=left;verticalAlign=top;spacingLeft=4;spacingRight=4;overflow=hidden;rotatable=0;points=[[0,0.5],[1,0.5]];portConstraint=eastwest;whiteSpace=wrap;html=1;" parent="0f7jAilSPW5a9-ydPJ3p-144" vertex="1">
          <mxGeometry y="26" width="185" height="26" as="geometry" />
        </mxCell>
        <mxCell id="0f7jAilSPW5a9-ydPJ3p-146" value="ebooks_packages_id:integer FK" style="text;strokeColor=none;fillColor=none;align=left;verticalAlign=top;spacingLeft=4;spacingRight=4;overflow=hidden;rotatable=0;points=[[0,0.5],[1,0.5]];portConstraint=eastwest;whiteSpace=wrap;html=1;" parent="0f7jAilSPW5a9-ydPJ3p-144" vertex="1">
          <mxGeometry y="52" width="185" height="26" as="geometry" />
        </mxCell>
        <mxCell id="0f7jAilSPW5a9-ydPJ3p-147" value="process_id:string FK" style="text;strokeColor=none;fillColor=none;align=left;verticalAlign=top;spacingLeft=4;spacingRight=4;overflow=hidden;rotatable=0;points=[[0,0.5],[1,0.5]];portConstraint=eastwest;whiteSpace=wrap;html=1;" parent="0f7jAilSPW5a9-ydPJ3p-144" vertex="1">
          <mxGeometry y="78" width="185" height="26" as="geometry" />
        </mxCell>
        <mxCell id="0f7jAilSPW5a9-ydPJ3p-148" value="name: string" style="text;strokeColor=none;fillColor=none;align=left;verticalAlign=top;spacingLeft=4;spacingRight=4;overflow=hidden;rotatable=0;points=[[0,0.5],[1,0.5]];portConstraint=eastwest;whiteSpace=wrap;html=1;" parent="0f7jAilSPW5a9-ydPJ3p-144" vertex="1">
          <mxGeometry y="104" width="185" height="26" as="geometry" />
        </mxCell>
        <mxCell id="0f7jAilSPW5a9-ydPJ3p-149" value="active:boolean" style="text;strokeColor=none;fillColor=none;align=left;verticalAlign=top;spacingLeft=4;spacingRight=4;overflow=hidden;rotatable=0;points=[[0,0.5],[1,0.5]];portConstraint=eastwest;whiteSpace=wrap;html=1;" parent="0f7jAilSPW5a9-ydPJ3p-144" vertex="1">
          <mxGeometry y="130" width="185" height="26" as="geometry" />
        </mxCell>
        <mxCell id="0f7jAilSPW5a9-ydPJ3p-150" value="process" style="swimlane;fontStyle=0;childLayout=stackLayout;horizontal=1;startSize=26;fillColor=none;horizontalStack=0;resizeParent=1;resizeParentMax=0;resizeLast=0;collapsible=1;marginBottom=0;whiteSpace=wrap;html=1;" parent="1" vertex="1">
          <mxGeometry x="-150" y="584" width="140" height="130" as="geometry" />
        </mxCell>
        <mxCell id="0f7jAilSPW5a9-ydPJ3p-151" value="id:integer PK" style="text;strokeColor=default;fillColor=none;align=left;verticalAlign=top;spacingLeft=4;spacingRight=4;overflow=hidden;rotatable=0;points=[[0,0.5],[1,0.5]];portConstraint=eastwest;whiteSpace=wrap;html=1;" parent="0f7jAilSPW5a9-ydPJ3p-150" vertex="1">
          <mxGeometry y="26" width="140" height="26" as="geometry" />
        </mxCell>
        <mxCell id="0f7jAilSPW5a9-ydPJ3p-153" value="effectiveDate:dateTime" style="text;strokeColor=none;fillColor=none;align=left;verticalAlign=top;spacingLeft=4;spacingRight=4;overflow=hidden;rotatable=0;points=[[0,0.5],[1,0.5]];portConstraint=eastwest;whiteSpace=wrap;html=1;" parent="0f7jAilSPW5a9-ydPJ3p-150" vertex="1">
          <mxGeometry y="52" width="140" height="26" as="geometry" />
        </mxCell>
        <mxCell id="0f7jAilSPW5a9-ydPJ3p-154" value="name: string" style="text;strokeColor=none;fillColor=none;align=left;verticalAlign=top;spacingLeft=4;spacingRight=4;overflow=hidden;rotatable=0;points=[[0,0.5],[1,0.5]];portConstraint=eastwest;whiteSpace=wrap;html=1;" parent="0f7jAilSPW5a9-ydPJ3p-150" vertex="1">
          <mxGeometry y="78" width="140" height="26" as="geometry" />
        </mxCell>
        <mxCell id="MqzmuiDmmc-yn_9UZ0-z-29" value="active:boolean" style="text;strokeColor=none;fillColor=none;align=left;verticalAlign=top;spacingLeft=4;spacingRight=4;overflow=hidden;rotatable=0;points=[[0,0.5],[1,0.5]];portConstraint=eastwest;whiteSpace=wrap;html=1;" vertex="1" parent="0f7jAilSPW5a9-ydPJ3p-150">
          <mxGeometry y="104" width="140" height="26" as="geometry" />
        </mxCell>
        <mxCell id="0f7jAilSPW5a9-ydPJ3p-162" style="edgeStyle=orthogonalEdgeStyle;rounded=0;orthogonalLoop=1;jettySize=auto;html=1;exitX=1;exitY=0.5;exitDx=0;exitDy=0;entryX=0;entryY=0.5;entryDx=0;entryDy=0;" parent="1" source="0f7jAilSPW5a9-ydPJ3p-160" target="0f7jAilSPW5a9-ydPJ3p-151" edge="1">
          <mxGeometry relative="1" as="geometry">
            <Array as="points">
              <mxPoint x="-356" y="642" />
              <mxPoint x="-253" y="642" />
              <mxPoint x="-253" y="623" />
            </Array>
          </mxGeometry>
        </mxCell>
        <mxCell id="0f7jAilSPW5a9-ydPJ3p-165" style="edgeStyle=orthogonalEdgeStyle;rounded=0;orthogonalLoop=1;jettySize=auto;html=1;exitX=0;exitY=0.5;exitDx=0;exitDy=0;entryX=1;entryY=0.5;entryDx=0;entryDy=0;" parent="1" source="0f7jAilSPW5a9-ydPJ3p-161" target="0f7jAilSPW5a9-ydPJ3p-151" edge="1">
          <mxGeometry relative="1" as="geometry">
            <Array as="points">
              <mxPoint x="130" y="560" />
              <mxPoint x="130" y="667" />
              <mxPoint x="68" y="667" />
              <mxPoint x="68" y="623" />
            </Array>
          </mxGeometry>
        </mxCell>
        <mxCell id="0f7jAilSPW5a9-ydPJ3p-166" style="edgeStyle=orthogonalEdgeStyle;rounded=0;orthogonalLoop=1;jettySize=auto;html=1;exitX=1;exitY=0.5;exitDx=0;exitDy=0;entryX=1;entryY=0.5;entryDx=0;entryDy=0;" parent="1" source="0f7jAilSPW5a9-ydPJ3p-146" target="0f7jAilSPW5a9-ydPJ3p-136" edge="1">
          <mxGeometry relative="1" as="geometry" />
        </mxCell>
        <mxCell id="hG0s1BDcWePqMxRBabiZ-2" style="edgeStyle=orthogonalEdgeStyle;rounded=0;orthogonalLoop=1;jettySize=auto;html=1;exitX=0;exitY=0.5;exitDx=0;exitDy=0;entryX=0;entryY=0.5;entryDx=0;entryDy=0;" parent="1" source="JuW6R3AkMgyiEgDl9GDe-2" target="0f7jAilSPW5a9-ydPJ3p-151" edge="1">
          <mxGeometry relative="1" as="geometry">
            <Array as="points">
              <mxPoint x="-276" y="253" />
              <mxPoint x="-276" y="567" />
              <mxPoint x="-176" y="567" />
              <mxPoint x="-176" y="623" />
            </Array>
          </mxGeometry>
        </mxCell>
        <mxCell id="hG0s1BDcWePqMxRBabiZ-3" style="edgeStyle=orthogonalEdgeStyle;rounded=0;orthogonalLoop=1;jettySize=auto;html=1;exitX=0;exitY=0.5;exitDx=0;exitDy=0;entryX=1;entryY=0.5;entryDx=0;entryDy=0;" parent="1" source="JuW6R3AkMgyiEgDl9GDe-1" target="0f7jAilSPW5a9-ydPJ3p-151" edge="1">
          <mxGeometry relative="1" as="geometry" />
        </mxCell>
        <mxCell id="MqzmuiDmmc-yn_9UZ0-z-16" style="edgeStyle=none;rounded=0;orthogonalLoop=1;jettySize=auto;html=1;exitX=1;exitY=0.5;exitDx=0;exitDy=0;entryX=-0.008;entryY=0.465;entryDx=0;entryDy=0;entryPerimeter=0;" edge="1" parent="1" source="0f7jAilSPW5a9-ydPJ3p-121" target="0f7jAilSPW5a9-ydPJ3p-151">
          <mxGeometry relative="1" as="geometry">
            <mxPoint x="-152" y="625" as="targetPoint" />
            <Array as="points">
              <mxPoint x="-330" y="331" />
              <mxPoint x="-329" y="622" />
              <mxPoint x="-157" y="622" />
              <mxPoint x="-154" y="624" />
            </Array>
          </mxGeometry>
        </mxCell>
      </root>
    </mxGraphModel>
  </diagram>
</mxfile>
